# xmcd
#
# Track frame offsets:
#	150
#	11852
#	26210
#	37517
#	50250
#	63762
#	77352
#	91712
#	104415
#	117055
#	129242
#	140662
#	154812
#	167592
#	179410
#	191182
#	203250
#	214402
#	227505
#	239862
#	252860
#	263267
#	274737
#	286647
#	297412
#	306600
#	317050
#	327172
#
# Disc length: 4518 seconds
#
# Revision: 0
# Processed by: cddbd v1.5.1PL2 Copyright (c) Steve Scherf et al.
# Submitted via: dBpowerAMP V4.0
#
DISCID=8311a41c
DTITLE=Jimmie Skinner - Doin' My Time CD2
DYEAR=2003
DGENRE=Country
TTITLE0=Jimmie's Yodel Blues (A Tribute To Jimmie Rodgers)
TTITLE1=You Locked The Door Of My Heart
TTITLE2=You're Just A Rolling Stone
TTITLE3=There's No Love In My Heart For You Now
TTITLE4=I'd Gamble My Heart
TTITLE5=There's Nothin' About You Special
TTITLE6=I'm Giving You No Reason To Forget
TTITLE7=Who Do You Think You're Fooling
TTITLE8=I'm A Regular Daddy
TTITLE9=It's My World
TTITLE10=It's Bargain Day (In Broken Hearts)
TTITLE11=The Hem Of His Garment
TTITLE12=Dad, Too Is Lonely
TTITLE13=Running Out Of Time
TTITLE14=Station Door Blues
TTITLE15=Falling Rain Blues
TTITLE16=It's All The Same To Me
TTITLE17=Journey's End
TTITLE18=I Can't Tell My Heart That
TTITLE19=Tell Them
TTITLE20=Kentucky And You
TTITLE21=Dreaming My Weary Life Away
TTITLE22='Tis Sweet To Be Remembered
TTITLE23=(Send Me) A Penny Postcard
TTITLE24=Women Beware (Of The Ramblin' Kind)
TTITLE25=(I Can't Believe) It's Our Goodbye
TTITLE26=When The Book Of Life Is Read
TTITLE27=Holy Life Insurance
EXTD=
EXTT0=
EXTT1=
EXTT2=
EXTT3=
EXTT4=
EXTT5=
EXTT6=
EXTT7=
EXTT8=
EXTT9=
EXTT10=
EXTT11=
EXTT12=
EXTT13=
EXTT14=
EXTT15=
EXTT16=
EXTT17=
EXTT18=
EXTT19=
EXTT20=
EXTT21=
EXTT22=
EXTT23=
EXTT24=
EXTT25=
EXTT26=
EXTT27=
PLAYORDER=
